<?xml version="1.0" encoding="utf-8" ?>
<svg xmlns="http://www.w3.org/2000/svg" xmlns:xlink="http://www.w3.org/1999/xlink" width="355" height="195">
	<clipPath id="cl_4">
		<rect y="-2.2888184e-05" width="354.99997" height="195"/>
	</clipPath>
	<g clip-path="url(#cl_4)">
		<path fill="#1B4F40" transform="matrix(0.381054 0 0 0.382127 -213.824 -99.2982)" d="M876.596 372.98C925.837 339.086 986.463 329.196 1044.87 339.967C1086.26 347.6 1123.1 367.749 1154.21 395.687C1159.28 400.238 1166.42 405.731 1170.38 411.236C1170.77 411.77 1170.81 412.293 1170.91 412.921C1169.16 418.812 1163.59 430.857 1158.7 434.417C1158.57 433.809 1158.5 433.353 1158.15 432.824C1155.21 428.361 1149.89 423.465 1146.03 419.65Q1143.64 417.321 1141.18 415.063Q1138.73 412.805 1136.2 410.622Q1133.68 408.438 1131.09 406.33Q1128.51 404.222 1125.86 402.192Q1123.21 400.161 1120.51 398.21Q1117.8 396.259 1115.03 394.39Q1112.27 392.52 1109.45 390.733Q1106.64 388.946 1103.77 387.243Q1100.9 385.54 1097.98 383.923Q1095.06 382.306 1092.09 380.777Q1089.13 379.247 1086.12 377.806Q1083.11 376.365 1080.06 375.014Q1077.01 373.662 1073.92 372.402Q1070.83 371.142 1067.7 369.974Q1064.58 368.806 1061.42 367.731Q1058.26 366.657 1055.07 365.676C998.129 348.509 950.735 360.431 899.851 387.696C894.201 382.871 883.194 377.392 876.596 372.98Z"/>
		<path fill="#133548" transform="matrix(0.381054 0 0 0.382127 -213.824 -99.2982)" d="M1272.84 326.624C1274.81 317.253 1256.77 301.973 1258.16 282.385C1258.46 278.146 1259.82 274.351 1263.16 271.588C1270.4 265.596 1279.81 268.513 1288.24 269.227C1293.49 269.671 1299.42 275.386 1304.54 277.745C1312.95 281.611 1321.77 284.399 1330.26 288.013C1336.09 290.495 1349.81 300.344 1352.28 306.47C1352.71 307.89 1352.63 309.091 1352.4 310.56C1351.48 316.373 1348.74 321.773 1344.1 325.453C1331.49 335.458 1315.29 333.028 1304.79 340.756C1294.97 347.994 1292.88 362.328 1283.78 369.044C1284.32 372.709 1268.53 402.156 1265.32 406.361C1264.65 407.241 1264.01 407.662 1263.02 408.135C1264.14 412.292 1260.26 417.441 1258.23 420.979C1256.99 423.132 1254.81 426.449 1255.5 429.028C1256.49 432.711 1258.14 434.837 1256.08 438.46C1255.41 439.643 1254.62 440.779 1253.86 441.907C1260.72 444.181 1289.95 469.102 1293.54 475.216C1293.38 480.259 1264.04 546.262 1259.83 550.837C1254.99 550.856 1250.32 551.199 1245.93 548.845L1245.78 546.536C1244.22 543.505 1242.48 542.089 1239.75 540.122C1239.71 539.938 1239.69 539.753 1239.65 539.571C1237.11 527.53 1201.33 517.134 1190.32 515.381C1184.64 514.476 1163.18 514.842 1160.43 512.931C1164.51 503.31 1168.67 493.515 1171.53 483.458C1172.2 481.135 1171.95 481.177 1170.79 479.087C1175.5 474.183 1182.4 452.459 1184.64 445.181C1185.72 441.671 1186.61 440.301 1184.85 436.975C1186.59 434.892 1187.1 433.462 1189.87 433.003C1195.98 437.747 1199.63 445.42 1200.58 452.995C1201.74 462.219 1197.15 494.858 1201.55 500.09C1203.71 497.281 1220.95 438.5 1220.49 433.593C1220.43 432.894 1220.27 432.238 1220.03 431.58C1208.98 427.962 1194.4 425.613 1182.84 424.314C1182.84 427.474 1141.52 505.001 1137.66 509.019C1137.64 509.221 1137.64 509.423 1137.61 509.623C1137.25 512.167 1136.5 514.969 1134.28 516.469C1132.57 517.628 1129.6 518.182 1127.62 517.781C1125.64 509.382 1161.74 448.824 1167.76 437.694C1170.82 432.038 1176.82 423.443 1177.67 417.122C1192.93 417.825 1208.28 421.646 1223.17 424.87C1226.85 423.377 1233.35 420.645 1235.32 417.092Q1236.83 415.429 1237.92 413.47C1244.59 401.554 1274.81 334.427 1272.84 326.624Z"/>
		<path fill="#FBF9FC" transform="matrix(0.381054 0 0 0.382127 -213.824 -99.2982)" d="M1272.89 351.493C1275.61 351.23 1277.75 351.594 1279.98 353.086C1279.95 353.373 1279.94 353.66 1279.91 353.946C1279.12 361.325 1250.88 416.275 1246.32 420.103L1245.91 421.571L1244.06 422.094C1240.27 415.575 1274.36 361.913 1272.89 351.493Z"/>
		<path fill="#FBF9FC" transform="matrix(0.381054 0 0 0.382127 -213.824 -99.2982)" d="M1270.72 275.494C1272.62 275.187 1274.29 274.781 1276.17 275.316C1276.7 280.146 1271.2 283.153 1271.44 289.019C1271.92 300.461 1279.95 312.846 1288.23 320.541C1294.35 326.228 1300.89 327.22 1309.04 326.836C1316.53 326.483 1331.83 324.853 1336.71 318.842C1339.88 314.931 1338.74 309.504 1338.18 304.947C1340.39 304.586 1341.51 305.89 1343.31 307.074C1344.44 307.782 1344.91 308.477 1345.65 309.544C1344.82 312.856 1342.71 316.549 1340.38 319.046C1329.93 330.262 1308.02 330.343 1293.79 330.7C1293.34 330.088 1293.55 330.271 1292.97 329.869L1290.97 328.463C1282.83 322.778 1269.19 304.968 1266.86 295.485C1265 287.893 1266.83 282.053 1270.72 275.494Z"/>
		<path fill="#FBF9FC" transform="matrix(0.381054 0 0 0.382127 -213.824 -99.2982)" d="M1277.18 291.492C1278.03 291.369 1279 291.274 1279.85 291.454C1287.79 293.133 1295.98 300.669 1303.96 303.634C1309.43 305.669 1327.19 310.037 1330.1 314.313L1327.27 315.909C1319.27 320.657 1305.09 319.363 1296.15 318.916C1295.42 315.525 1286.52 306.743 1284.05 303.395C1281.32 299.691 1279.18 295.625 1277.18 291.492Z"/>
		<path fill="#FBF9FC" transform="matrix(0.381054 0 0 0.382127 -213.824 -99.2982)" d="M1208.56 500.149C1208.64 499.749 1208.72 499.347 1208.81 498.949C1211.54 487.702 1215.37 476.448 1218.59 465.316C1221.36 455.711 1223.45 444.428 1227.87 435.494C1229.54 432.106 1231.38 429.44 1234.67 427.483C1239.52 427.243 1244.42 431.337 1248.4 433.992C1248.83 436.305 1245.56 441.209 1244.41 443.491L1244.79 442.394C1232.24 456.645 1225.27 482.242 1212.82 496.087C1211.75 498.821 1211.06 498.86 1208.56 500.149Z"/>
		<path fill="#DAE7F2" transform="matrix(0.381054 0 0 0.382127 -213.824 -99.2982)" d="M1184.85 436.975C1186.59 434.892 1187.1 433.462 1189.87 433.003C1195.98 437.747 1199.63 445.42 1200.58 452.995C1201.74 462.219 1197.15 494.858 1201.55 500.09C1203.3 502.673 1204.87 505.573 1207.68 507.112C1209.43 506.572 1210.17 506.152 1211.49 504.873C1211.2 502.314 1210.33 501.895 1208.56 500.149C1211.06 498.86 1211.75 498.821 1212.82 496.087C1213.54 498.725 1213.55 499.269 1215.6 501.02L1217.99 500.665C1222.8 497.734 1226.8 491.675 1229.69 486.922C1234.25 481.758 1246.32 467.837 1247.81 461.856C1252.2 464.41 1257.22 467.435 1260.66 471.183C1259.47 466.553 1257.07 465.929 1255.17 462.048C1257.06 462.725 1258.64 463.24 1260.66 463.35C1259.72 460.173 1256.67 458.723 1254.61 456.125C1253.37 454.568 1253.63 454.457 1253.84 452.57C1259.54 455.98 1281.73 470.777 1283.22 476.669C1283.28 476.901 1283.32 477.139 1283.37 477.374C1283.41 482.453 1259.76 535.714 1255.86 539.895C1255.74 540.03 1255.6 540.156 1255.47 540.287C1250.37 539.653 1244.7 538.291 1239.75 540.122C1239.71 539.938 1239.69 539.753 1239.65 539.571C1237.11 527.53 1201.33 517.134 1190.32 515.381C1184.64 514.476 1163.18 514.842 1160.43 512.931C1164.51 503.31 1168.67 493.515 1171.53 483.458C1172.2 481.135 1171.95 481.177 1170.79 479.087C1175.5 474.183 1182.4 452.459 1184.64 445.181C1185.72 441.671 1186.61 440.301 1184.85 436.975Z"/>
		<path fill="#0F3F44" transform="matrix(0.381054 0 0 0.382127 -213.824 -99.2982)" d="M1229.69 486.922C1234.44 485.396 1244.66 471.202 1247.58 466.216C1248.08 465.364 1248.23 464.652 1248.45 463.702C1248.24 471.748 1227.75 497.61 1221.55 503.577C1219.07 505.963 1216.21 508.327 1212.54 508.162C1210.95 508.09 1209.21 507.532 1207.68 507.112C1209.43 506.572 1210.17 506.152 1211.49 504.873C1211.2 502.314 1210.33 501.895 1208.56 500.149C1211.06 498.86 1211.75 498.821 1212.82 496.087C1213.54 498.725 1213.55 499.269 1215.6 501.02L1217.99 500.665C1222.8 497.734 1226.8 491.675 1229.69 486.922Z"/>
		<path fill="#FBF9FC" transform="matrix(0.381054 0 0 0.382127 -213.824 -99.2982)" d="M899.851 387.696C950.735 360.431 998.129 348.509 1055.07 365.676Q1058.26 366.657 1061.42 367.731Q1064.58 368.806 1067.7 369.974Q1070.83 371.142 1073.92 372.402Q1077.01 373.662 1080.06 375.014Q1083.11 376.365 1086.12 377.806Q1089.13 379.247 1092.09 380.777Q1095.06 382.306 1097.98 383.923Q1100.9 385.54 1103.77 387.243Q1106.64 388.946 1109.45 390.733Q1112.27 392.52 1115.03 394.39Q1117.8 396.259 1120.51 398.21Q1123.21 400.161 1125.86 402.192Q1128.51 404.222 1131.09 406.33Q1133.68 408.438 1136.2 410.622Q1138.73 412.805 1141.18 415.063Q1143.64 417.321 1146.03 419.65C1149.89 423.465 1155.21 428.361 1158.15 432.824C1158.5 433.353 1158.57 433.809 1158.7 434.417C1163.59 430.857 1169.16 418.812 1170.91 412.921L1177.67 417.122C1176.82 423.443 1170.82 432.038 1167.76 437.694C1161.74 448.824 1125.64 509.382 1127.62 517.781C1129.6 518.182 1132.57 517.628 1134.28 516.469C1136.5 514.969 1137.25 512.167 1137.61 509.623C1137.64 509.423 1137.64 509.221 1137.66 509.019C1141.52 505.001 1182.84 427.474 1182.84 424.314C1194.4 425.613 1208.98 427.962 1220.03 431.58C1220.27 432.238 1220.43 432.894 1220.49 433.593C1220.95 438.5 1203.71 497.281 1201.55 500.09C1197.15 494.858 1201.74 462.219 1200.58 452.995C1199.63 445.42 1195.98 437.747 1189.87 433.003C1187.1 433.462 1186.59 434.892 1184.85 436.975C1186.61 440.301 1185.72 441.671 1184.64 445.181C1182.4 452.459 1175.5 474.183 1170.79 479.087C1171.95 481.177 1172.2 481.135 1171.53 483.458C1168.67 493.515 1164.51 503.31 1160.43 512.931C1163.18 514.842 1184.64 514.476 1190.32 515.381C1201.33 517.134 1237.11 527.53 1239.65 539.571C1239.69 539.753 1239.71 539.938 1239.75 540.122C1242.48 542.089 1244.22 543.505 1245.78 546.536L1245.93 548.845L1244.4 549.79L1240.9 548.958C1240.22 549.616 1239.36 549.941 1238.52 550.355C1202.83 547.631 1167.09 546.165 1131.36 544.057C1119.95 543.383 1102.29 543.85 1091.56 541.607C1090.4 541.364 1089.43 540.694 1088.53 539.95L1086.01 541.98C1081.89 543.085 1078.16 542.618 1074 542.152L1076.65 541.547C1066.43 540.818 1056.17 541.773 1045.94 541.9L985.154 542.51C1000.5 538.97 1015.4 533.778 1027.64 523.566C1042.08 511.512 1049.6 494.428 1051.29 475.893C1052.84 458.732 1049.48 422.593 1038.25 409.106C1035.73 411.758 1028.94 413.184 1025.35 414.323C994.252 424.184 972.867 434.506 953.573 461.679L948.627 449.309C949.263 447.053 951.253 448.517 952.809 446.57C950.517 446.061 948.51 445.33 946.352 444.432L945.844 442.765C949.026 440.713 953.832 443.122 956.794 441.042C952.796 439.195 948.102 441.79 944.18 440.01L943.547 438.173L945 437.138C949.949 437.431 956.709 437.562 961.399 435.86C955.905 435.12 944.418 437.471 940.321 434.331L940.27 432.106C947.066 431.132 961.65 433.565 966.934 431.257C967.988 430.796 967.793 430.616 968.176 429.615C959.729 427.827 949.898 430.886 941.172 429.537C938.539 429.131 937.414 428.726 935.919 426.56L937.759 426.57L937.896 425.585C942.281 426.998 971.315 426.181 976.013 424.695C970.19 421.447 939.81 427.943 932.852 422.258L929.098 417.241C927.967 416.32 926.863 414.283 925.969 413.067L924.456 411.781L919.359 406.332L915.762 402.091L914.35 400.807L911.212 397.776C907.715 394.246 903.583 390.998 899.851 387.696Z"/>
		<path fill="#92BF67" transform="matrix(0.381054 0 0 0.382127 -213.824 -99.2982)" d="M1102.74 466.734C1109.99 466.216 1136.31 464.001 1141.43 467.452C1140.4 469.213 1140.02 469.461 1138.04 469.945C1134.48 470.813 1129.34 470.194 1125.7 469.982C1122.04 466.251 1108.3 467.054 1102.74 466.734Z"/>
		<path fill="#76A945" transform="matrix(0.381054 0 0 0.382127 -213.824 -99.2982)" d="M1097.49 447.901C1092.45 448.647 1061.76 449.712 1058.68 447.762L1058.45 445.98C1062.02 443.652 1070.22 444.714 1074.63 444.862L1075.65 444.988C1083.35 445.891 1091.87 443.991 1099.26 445.927L1097.49 447.901Z"/>
		<path fill="#92BF67" transform="matrix(0.381054 0 0 0.382127 -213.824 -99.2982)" d="M1031.9 392.842C1043.51 391.474 1080.71 390.22 1091.31 391.956C1093.42 392.301 1095.5 393.357 1097.23 394.589C1097.82 395.012 1098.22 395.451 1098.69 395.999C1085.77 395.985 1072.58 396.53 1059.69 395.842C1061.06 395.566 1062.4 395.113 1063.74 394.726L1063.47 394.018C1053.38 391.95 1042.25 394.011 1031.9 392.842Z"/>
		<path fill="#92BF67" transform="matrix(0.381054 0 0 0.382127 -213.824 -99.2982)" d="M929.098 417.241L930.045 417.382C941.507 418.996 984.473 415.583 989.638 418.46C977.535 425.113 947.91 419.921 932.852 422.258L929.098 417.241Z"/>
		<path fill="#76A945" transform="matrix(0.381054 0 0 0.382127 -213.824 -99.2982)" d="M1054.37 535.499C1063.8 535.083 1075.08 533.813 1084.33 535.982C1076.64 540.445 1057.94 539.202 1049.25 539.474C1042.32 539.859 1034.95 540.104 1028.01 539.679C1025.75 539.54 1023.59 539.115 1022.05 537.355C1025.35 534.292 1048.94 535.576 1054.37 535.499Z"/>
		<path fill="#76A945" transform="matrix(0.381054 0 0 0.382127 -213.824 -99.2982)" d="M1125.7 469.982C1125.21 470.055 1124.99 470.095 1124.44 470.126C1113.09 470.765 1101.48 470.517 1090.09 470.724C1081.79 470.876 1072.86 471.686 1064.61 471.035C1062.41 470.861 1060.46 470.229 1058.77 468.786C1063.46 465.794 1095.65 466.511 1102.74 466.734C1108.3 467.054 1122.04 466.251 1125.7 469.982Z"/>
		<path fill="#92BF67" transform="matrix(0.381054 0 0 0.382127 -213.824 -99.2982)" d="M1043.47 398.142C1057.79 398.015 1096.05 395.106 1107.3 400.727C1104.59 402.307 1051.03 403.246 1046.04 401.551C1045.14 401.247 1044.16 400.579 1043.43 399.984L1043.47 398.142Z"/>
		<path fill="#76A945" transform="matrix(0.381054 0 0 0.382127 -213.824 -99.2982)" d="M1013.32 388.053C1026.11 386.173 1077.65 382.409 1085.79 388.798C1086.15 389.08 1086.49 389.391 1086.83 389.699C1068.55 389.938 1049.89 390.995 1031.65 390.105C1027.26 388.574 1018.87 389.589 1014.02 389.386L1013.32 388.053Z"/>
		<path fill="#92BF67" transform="matrix(0.381054 0 0 0.382127 -213.824 -99.2982)" d="M1074.63 444.862C1090.13 442.805 1106.76 444.006 1122.42 443.799C1130.41 443.694 1139.15 442.524 1147.04 443.155C1149.45 443.348 1151.67 443.821 1153.73 445.16C1153.11 446.133 1153.36 446.179 1152.14 446.466C1138.42 449.716 1112.16 448.707 1097.49 447.901L1099.26 445.927C1091.87 443.991 1083.35 445.891 1075.65 444.988L1074.63 444.862Z"/>
		<path fill="#92BF67" transform="matrix(0.381054 0 0 0.382127 -213.824 -99.2982)" d="M1046.26 404.466C1061.89 402.48 1094.31 402.897 1110.17 404.252L1109.55 402.187C1110.7 403.335 1111.8 404.634 1113.41 405.075C1113.72 405.16 1114.04 405.225 1114.36 405.299L1114.64 406.85C1103.96 409.206 1064.93 408.985 1053 408.112C1049.29 407.84 1048.55 407.186 1046.26 404.466Z"/>
		<path fill="#92BF67" transform="matrix(0.381054 0 0 0.382127 -213.824 -99.2982)" d="M952.082 412.18L1005.02 411.41C1002.18 412.707 999.125 414.395 996.063 415.022C981.882 417.132 936.928 413.362 929.098 417.241C927.967 416.32 926.863 414.283 925.969 413.067C934.671 412.943 943.376 412.358 952.082 412.18Z"/>
		<path fill="#92BF67" transform="matrix(0.381054 0 0 0.382127 -213.824 -99.2982)" d="M1049.54 410.484C1050.54 410.38 1051.55 410.28 1052.55 410.234C1062.85 409.751 1118.84 408.312 1122.59 411.689L1121.83 413.5C1111.2 414.259 1059.46 416.297 1052.09 413.747C1050.44 413.175 1050.29 411.986 1049.54 410.484Z"/>
		<path fill="#92BF67" transform="matrix(0.381054 0 0 0.382127 -213.824 -99.2982)" d="M1118.1 415.5C1119.47 415.403 1120.85 415.311 1122.22 415.313C1124.63 415.316 1127.2 415.562 1128.96 417.306C1124.6 421.252 1072.41 420.056 1061.75 420.088C1058.97 420.199 1054.14 420.336 1052 418.538C1057.5 413.941 1107.04 415.663 1118.1 415.5Z"/>
		<path fill="#76A945" transform="matrix(0.381054 0 0 0.382127 -213.824 -99.2982)" d="M1087.52 427.501C1104.28 426.752 1124.54 424.926 1140.92 427.964L1141.39 428.74C1131.32 432.301 1116.49 430.772 1105.75 430.928C1096.91 431.118 1061.29 433.462 1055.38 431.048C1055.36 429.986 1055.15 430.254 1055.84 429.585C1059.53 425.988 1081.47 427.565 1087.52 427.501Z"/>
		<path fill="#92BF67" transform="matrix(0.381054 0 0 0.382127 -213.824 -99.2982)" d="M1094.29 421.501C1105.43 421.089 1126.35 417.932 1136.17 423.016C1132.45 426.406 1099.43 425.38 1092.75 425.446C1084.21 425.733 1061.28 428.448 1054.22 424.691L1054.15 422.929C1058.6 420.213 1086.95 421.595 1094.29 421.501Z"/>
		<path fill="#76A945" transform="matrix(0.381054 0 0 0.382127 -213.824 -99.2982)" d="M1103.55 455.501C1112.65 455.141 1141.81 452.462 1148.18 457.219C1142.41 460.968 1107.55 459.242 1098.75 459.311C1090.65 459.643 1064.59 462.194 1059.39 458.05C1064.1 454.311 1095.66 455.601 1103.55 455.501Z"/>
		<path fill="#76A945" transform="matrix(0.381054 0 0 0.382127 -213.824 -99.2982)" d="M1122.67 432.503C1128.64 432.272 1137.74 430.808 1143.39 432.049C1145.52 432.518 1146.04 433.531 1147.03 435.241C1140.41 437.62 1087.48 437.14 1076.75 437.233C1069.98 437.695 1063.94 437.726 1057.24 436.577L1056.55 434.618L1054.74 435.541L1056.7 436.444L1057.27 434.447C1073.04 431.235 1104.66 433.09 1122.67 432.503Z"/>
		<path fill="#92BF67" transform="matrix(0.381054 0 0 0.382127 -213.824 -99.2982)" d="M1094.71 438.5C1102.9 438.165 1145.26 436.33 1150.12 438.107C1150.69 438.317 1151.65 439.293 1152.17 439.699L1151.75 440.607C1140.33 443.433 1124.67 441.92 1112.75 442.062L1072.98 442.773C1069.17 442.838 1060.37 443.897 1057.77 441.382C1057.94 441.189 1058.09 440.986 1058.27 440.804C1062.26 436.792 1088.06 438.577 1094.71 438.5Z"/>
		<path fill="#76A945" transform="matrix(0.381054 0 0 0.382127 -213.824 -99.2982)" d="M1137.59 449.499C1141.49 449.239 1146.43 448.259 1149.71 450.845L1149.05 452.149C1138.5 455.62 1083.19 454.081 1068.75 454.186C1065.56 454.433 1061.55 454.933 1058.98 452.987L1059.25 451.174C1063.1 448.897 1128.32 449.593 1137.59 449.499Z"/>
		<path fill="#92BF67" transform="matrix(0.381054 0 0 0.382127 -213.824 -99.2982)" d="M1024.55 371.874C1033.08 372.166 1045.38 371.367 1052.59 376.442C1026.35 377.357 1000.01 377.265 973.75 377.549L945.414 377.737C965.563 370.81 988.413 373.488 1009.51 373.08C1014.17 372.99 1020.25 373.576 1024.55 371.874Z"/>
		<path fill="#92BF67" transform="matrix(0.381054 0 0 0.382127 -213.824 -99.2982)" d="M919.359 406.332C929.342 408.457 941.813 406.434 952.068 406.098C977.005 405.279 1002.24 403.868 1027.17 403.846C1014.66 413.189 959.33 409.836 941.293 410.457C936.116 410.635 929.353 410.216 924.456 411.781L919.359 406.332Z"/>
		<path fill="#76A945" transform="matrix(0.381054 0 0 0.382127 -213.824 -99.2982)" d="M915.762 402.091C958.239 402.189 1000.99 396.84 1043.47 398.142L1043.43 399.984C1022.36 403.554 926.33 402.673 919.359 406.332L915.762 402.091Z"/>
		<path fill="#76A945" transform="matrix(0.381054 0 0 0.382127 -213.824 -99.2982)" d="M911.212 397.776C930.831 395.733 950.26 396.276 969.907 395.518C990.541 394.723 1011.24 392.732 1031.9 392.842C1042.25 394.011 1053.38 391.95 1063.47 394.018L1063.74 394.726C1062.4 395.113 1061.06 395.566 1059.69 395.842C1026.44 396.391 993.304 397.814 960.071 398.797C949.642 399.105 923.265 398.1 914.35 400.807L911.212 397.776Z"/>
		<path fill="#133548" transform="matrix(0.381054 0 0 0.382127 -213.824 -99.2982)" d="M1184.85 436.975C1186.61 440.301 1185.72 441.671 1184.64 445.181C1182.4 452.459 1175.5 474.183 1170.79 479.087C1170.69 483.468 1159.47 510.977 1156.47 513.711C1156.36 513.811 1156.24 513.901 1156.13 513.996C1151.61 514.732 1146.15 516.272 1141.67 515.068C1141.38 514.092 1141.07 513.172 1140.98 512.155C1141.79 511.792 1142.43 511.42 1143.07 510.788C1146.73 507.193 1184.91 441.628 1184.85 436.975Z"/>
		<path fill="#92BF67" transform="matrix(0.381054 0 0 0.382127 -213.824 -99.2982)" d="M929.323 383.69C932.493 382.327 935.917 380.807 939.358 380.347C956.867 378.008 1059.32 377.004 1070.67 381.515Q1072.82 382.376 1074.92 383.363C1060.96 384.331 1046.69 383.75 1032.7 383.664C1025.19 386.381 1016.89 386.61 1009.02 387.151L1008.87 387.935L1007.91 387.475L1013.32 388.053L1014.02 389.386C1018.87 389.589 1027.26 388.574 1031.65 390.105C1025.52 393.169 949.302 393.844 935 394.228C928.973 394.39 922.563 395.484 916.596 395.229C914.53 395.141 913.618 395.019 912.172 393.495C916.956 389.683 989.478 389.598 1000.21 388.735C991.803 385.23 926.673 392.947 920.226 388.87C921.907 387.151 924.181 386.253 926.547 385.925C936.184 384.59 946.713 385.106 956.454 384.998C976.782 384.773 997.258 384.898 1017.52 383.079C988.251 383.193 958.544 384.346 929.323 383.69Z"/>
		<path fill="#1B4F40" transform="matrix(0.381054 0 0 0.382127 -213.824 -99.2982)" d="M1056.27 490.507C1077.24 479.691 1090.44 474.358 1114.54 481.891Q1116.06 482.377 1117.54 482.995C1117.62 490.22 1109.21 501.525 1104.35 506.505C1096.72 514.307 1081.83 523.26 1070.55 523.827C1064.51 524.131 1053.96 521.617 1049.28 517.988L1049.05 516.204C1051.55 513.734 1060.17 508.941 1063.62 508.777C1064.9 508.717 1065.54 509.403 1066.52 510.097C1066.32 508.638 1066.6 507.997 1067.14 506.682C1069.58 504.734 1072.05 504.328 1075.04 503.726C1080.81 500.273 1084.54 500.239 1090.91 499.316L1088.74 499.569L1090.45 498.582L1088.62 497.263C1089.56 495.536 1097.98 493.333 1100.27 492.26C1101.58 491.65 1101.51 491.699 1101.99 490.374C1098.33 490.344 1095.32 493.097 1091.82 494.087C1090.58 494.439 1090.62 494.688 1089.47 494.053L1089.95 490.804L1089.43 490.271C1087.47 493.27 1085.1 497.8 1081.49 498.925C1078.71 499.791 1078.16 499.356 1075.7 498.106C1074.68 500.77 1073.8 501.44 1071.7 503.243C1069.72 503.481 1069.2 503.681 1067.34 502.824L1067.02 499.264C1065.77 502.775 1063.94 507.04 1060.28 508.674C1059.06 509.22 1058.42 509.418 1057.12 509.242C1055.57 507.92 1055.7 507.915 1055.47 506.017C1054.25 508.844 1053.22 511.666 1050.21 513.01C1049.57 513.295 1049.07 513.347 1048.37 513.4C1047.85 505.758 1057.23 498.074 1056.27 490.507Z"/>
		<path fill="#0F3F44" transform="matrix(0.381054 0 0 0.382127 -213.824 -99.2982)" d="M1088.53 539.95C1124.76 522.206 1171.77 513.924 1210.87 527.24C1220.25 530.435 1235.73 538.062 1240.41 547.096C1240.74 547.724 1240.87 548.258 1240.9 548.958C1240.22 549.616 1239.36 549.941 1238.52 550.355C1202.83 547.631 1167.09 546.165 1131.36 544.057C1119.95 543.383 1102.29 543.85 1091.56 541.607C1090.4 541.364 1089.43 540.694 1088.53 539.95Z"/>
		<path fill="#1B4F40" transform="matrix(0.381054 0 0 0.382127 -213.824 -99.2982)" d="M726.711 336.991C779.869 340.127 828.178 350.505 876.596 372.98C883.194 377.392 894.201 382.871 899.851 387.696C903.583 390.998 907.715 394.246 911.212 397.776L914.35 400.807L915.762 402.091L919.359 406.332L924.456 411.781L925.969 413.067C926.863 414.283 927.967 416.32 929.098 417.241L932.852 422.258C939.81 427.943 970.19 421.447 976.013 424.695C971.315 426.181 942.281 426.998 937.896 425.585L937.759 426.57L935.919 426.56C937.414 428.726 938.539 429.131 941.172 429.537C949.898 430.886 959.729 427.827 968.176 429.615C967.793 430.616 967.988 430.796 966.934 431.257C961.65 433.565 947.066 431.132 940.27 432.106L940.321 434.331C944.418 437.471 955.905 435.12 961.399 435.86C956.709 437.562 949.949 437.431 945 437.138L943.547 438.173L944.18 440.01C948.102 441.79 952.796 439.195 956.794 441.042C953.832 443.122 949.026 440.713 945.844 442.765L946.352 444.432C948.51 445.33 950.517 446.061 952.809 446.57C951.253 448.517 949.263 447.053 948.627 449.309L953.573 461.679C972.867 434.506 994.252 424.184 1025.35 414.323C1028.94 413.184 1035.73 411.758 1038.25 409.106C1049.48 422.593 1052.84 458.732 1051.29 475.893C1049.6 494.428 1042.08 511.512 1027.64 523.566C1015.4 533.778 1000.5 538.97 985.154 542.51L1045.94 541.9C1056.17 541.773 1066.43 540.818 1076.65 541.547L1074 542.152C1078.16 542.618 1081.89 543.085 1086.01 541.98L1088.53 539.95C1089.43 540.694 1090.4 541.364 1091.56 541.607C1102.29 543.85 1119.95 543.383 1131.36 544.057C1167.09 546.165 1202.83 547.631 1238.52 550.355C1239.36 549.941 1240.22 549.616 1240.9 548.958L1244.4 549.79L1245.93 548.845C1250.32 551.199 1254.99 550.856 1259.83 550.837C1313.68 556.529 1367.48 561.425 1421.23 568.12C1442.98 570.829 1465.86 572.328 1487.14 577.432C1487.07 577.744 1486.94 578.37 1486.79 578.7C1485.26 582.043 1425.3 648.718 1418.27 656.002C1416.69 657.639 1415.03 658.829 1412.99 659.834C1413.12 659.923 1413.25 660.008 1413.38 660.101C1413.59 660.255 1413.8 660.418 1414.01 660.573C1414.6 661.007 1415.19 661.434 1415.75 661.907C1421.99 667.159 1485.78 752.523 1486.07 756.57C1472.86 752.798 1458.12 751.488 1444.52 749.598Q1405.42 744.321 1366.25 739.568Q1327.57 734.826 1288.77 731.164Q1249.97 727.502 1211.08 724.924Q1172.19 722.345 1133.25 720.852Q1094.3 719.359 1055.33 718.952Q1016.36 718.546 977.395 719.226Q938.428 719.906 899.495 721.673Q860.562 723.439 821.694 726.291Q782.826 729.142 744.052 733.076C683.138 738.989 621.821 745.612 561.572 756.492C569.677 742.683 580.637 729.597 590.296 716.782C604.74 697.618 619.171 677.557 635.104 659.623C624.905 649.493 615.385 638.404 605.639 627.825C590.674 611.581 575.54 595.476 561.276 578.607C635.791 565.482 712.476 557.282 787.873 551.264Q782.065 545.637 776.392 539.875C741.136 503.641 728.09 448.276 726.028 399.111C725.159 378.388 726.413 357.706 726.711 336.991Z"/>
		<path fill="#F7F9CF" transform="matrix(0.381054 0 0 0.382127 -213.824 -99.2982)" d="M1242.82 710.063C1249.36 710.173 1259.86 709.602 1265.73 712.028C1263.14 714.884 1260.23 714.839 1256.48 715.176C1248.56 715.39 1239.54 714.222 1231.68 713.133C1235.11 712.465 1241.29 713.717 1243.95 712.036L1242.82 710.063Z"/>
		<path fill="#FBF9FC" transform="matrix(0.381054 0 0 0.382127 -213.824 -99.2982)" d="M1125.59 558.243C1138.84 558.519 1152.3 558.777 1165.49 560.134C1162.53 562.985 1156.66 562.871 1152.67 563.161C1143.89 563.219 1135.18 562.597 1126.43 562.01C1126.55 560.124 1126.5 559.899 1125.59 558.243Z"/>
		<path fill="#F7F9CF" transform="matrix(0.381054 0 0 0.382127 -213.824 -99.2982)" d="M1344.92 720.027C1349.65 720.163 1375.91 721.859 1378.61 723.997C1378.59 725.275 1378.63 726.591 1378.47 727.859C1365.7 727.113 1352.35 725.045 1339.69 723.145C1341.16 722.958 1342.59 722.474 1344.02 722.066L1344.92 720.027Z"/>
		<path fill="#FAFBDA" transform="matrix(0.381054 0 0 0.382127 -213.824 -99.2982)" d="M1378.61 723.997C1385.95 724.168 1411.83 726.069 1417.41 728.839L1417.11 730.708L1414.81 732.143C1402.78 731.549 1390.45 729.357 1378.47 727.859C1378.63 726.591 1378.59 725.275 1378.61 723.997Z"/>
		<path fill="#FBF9FC" transform="matrix(0.381054 0 0 0.382127 -213.824 -99.2982)" d="M1189.44 706.132C1201.92 706.552 1232.18 706.892 1242.82 710.063L1243.95 712.036C1241.29 713.717 1235.11 712.465 1231.68 713.133C1218.36 713.275 1203.94 711.582 1190.67 710.198L1197.16 709.578L1197.27 708.973C1194.39 708.579 1192.4 708.26 1189.98 706.53C1189.79 706.401 1189.62 706.264 1189.44 706.132Z"/>
		<path fill="#FAFBDA" transform="matrix(0.381054 0 0 0.382127 -213.824 -99.2982)" d="M1265.73 712.028C1280.68 712.259 1306.09 713.841 1320.52 717.195C1326.5 717.564 1340.01 717.17 1344.92 720.027L1344.02 722.066C1342.59 722.474 1341.16 722.958 1339.69 723.145C1333 722.706 1326.42 722.057 1319.79 721.134C1301.41 721.148 1275.32 717.483 1256.48 715.176C1260.23 714.839 1263.14 714.884 1265.73 712.028Z"/>
		<path fill="#FAFBDA" transform="matrix(0.381054 0 0 0.382127 -213.824 -99.2982)" d="M1165.49 560.134C1174.11 560.197 1187.83 559.209 1195.95 561.865C1206.91 561.976 1235.06 561.974 1244.5 565.031C1248.46 565.005 1252.99 564.535 1256.75 565.918L1256.97 568.252C1255.18 569.116 1253.41 569.09 1251.46 569.187L1248.65 568.996C1231.35 569.477 1207.25 567.141 1189.76 565.171C1177.55 565.226 1164.81 564.454 1152.67 563.161C1156.66 562.871 1162.53 562.985 1165.49 560.134Z"/>
		<path fill="#F7F9CF" transform="matrix(0.381054 0 0 0.382127 -213.824 -99.2982)" d="M1256.75 565.918C1268.54 566.018 1347.4 571.649 1354.77 574.676C1361.05 575.087 1387.88 575.91 1391.78 578.835C1389.2 579.567 1386.77 580.026 1384.8 581.952C1373.64 582.168 1360.87 579.51 1349.71 578.022C1338.19 578.134 1325.85 576.03 1314.31 574.998C1293.39 573.128 1272.3 571.71 1251.46 569.187C1253.41 569.09 1255.18 569.116 1256.97 568.252L1256.75 565.918Z"/>
		<path fill="#F7F9CF" transform="matrix(0.381054 0 0 0.382127 -213.824 -99.2982)" d="M1400.17 648.155C1401.52 648.634 1402.87 648.896 1403.86 649.958C1403.49 653.402 1400.04 656.694 1397.46 658.772Q1396.68 659.399 1395.87 659.992C1403.29 665.306 1443.73 718.957 1450.5 729.8L1450.58 731.164C1452.9 732.723 1455.77 734.618 1456.51 737.54C1456.58 737.782 1456.55 738.039 1456.57 738.289C1447.74 736.788 1438.29 736.142 1429.6 734.163C1424.62 733.865 1419.73 732.967 1414.81 732.143L1417.11 730.708L1417.41 728.839C1421.94 729.034 1426.25 729.367 1430.72 730.237C1435.11 730.64 1440.5 730.527 1444.68 731.847L1444.82 730.515C1442 723.134 1395.82 664.227 1389.65 658.945C1393.8 656.627 1397.91 652.327 1400.17 648.155Z"/>
		<path fill="#FAFBDA" transform="matrix(0.381054 0 0 0.382127 -213.824 -99.2982)" d="M1391.78 578.835C1398.04 579.02 1429.17 581.052 1432.75 583.835C1434.94 583.982 1437.39 583.924 1439.53 584.333C1446.36 585.029 1453.63 585.322 1460.26 587.063C1459.64 590.78 1411.01 645.637 1405.43 649.219C1404.95 649.523 1404.39 649.755 1403.86 649.958C1402.87 648.896 1401.52 648.634 1400.17 648.155C1405.49 643.947 1450.14 594.634 1451.26 590.326C1445.26 588.985 1438.76 588.563 1432.66 587.775L1425.86 586.824C1412.29 584.704 1398.43 583.792 1384.8 581.952C1386.77 580.026 1389.2 579.567 1391.78 578.835Z"/>
		<path fill="#FBF9FC" transform="matrix(0.381054 0 0 0.382127 -213.824 -99.2982)" d="M619.317 730.715C628.107 726.025 749.281 714.256 769.935 712.367C775.381 716.807 782.762 713.958 789.138 715.05C759.779 719.542 729.575 720.492 700.015 723.98Q676.814 726.88 653.663 730.154C646.675 731.115 637.956 733.234 631.044 732.791C627.662 729.151 623.561 731.785 619.317 730.715Z"/>
		<path fill="#FBF9FC" transform="matrix(0.381054 0 0 0.382127 -213.824 -99.2982)" d="M1005.97 437.741C1007.73 441.196 1008.87 444.899 1011.09 448.127C1016.43 455.909 1020.47 449.408 1027.36 450.716L1024.31 450.845L1025.42 451.606L1010.83 455.926L1000.01 474.917C1008.04 473.048 1016.15 471.329 1024 468.818C1018.08 473.89 1005.94 476.268 998.436 478.732C994.979 484.322 991.847 489.885 989.021 495.821Q1006.62 492.254 1024 487.776C1012.71 493.609 999.259 496.447 987.049 499.832C983.135 505.993 979.934 512.28 976.827 518.879Q996.668 514.12 1016.43 509.041L1018.22 511.318L1016.92 509.032C1005.3 514.342 993.584 517.461 981.305 520.793C968.718 524.435 971.89 539.182 965.535 543.014L964.279 542.181C963.896 536.448 968.129 529.052 970.441 523.855C968.285 517.229 966.696 510.435 965 503.68L972.059 521.008Q975.795 513.292 979.75 505.685C976.629 496.419 973.168 486.796 970.912 477.293C975.7 483.289 978.447 494.638 981.335 501.991C984.623 497.223 987.168 492.044 989.821 486.909C988.691 483.171 985.297 468.189 983.411 466.265C983.295 466.148 983.147 466.067 983.016 465.968L983.809 465.119C983.155 464.602 983.421 464.962 983.223 463.911C986.627 470.164 988.809 477.373 991.294 484.048L999.983 470.597L994.496 452.745C997.524 457.569 999.268 463.512 1001.29 468.829C1004.37 463.458 1007.25 457.951 1010.2 452.508Q1008.03 445.141 1005.97 437.741Z"/>
		<path fill="#FBF9FC" transform="matrix(0.381054 0 0 0.382127 -213.824 -99.2982)" d="M769.935 712.367Q838.812 706.087 907.916 703.244Q977.02 700.402 1046.18 701.004C1091.69 701.1 1144.31 701.073 1189.44 706.132C1189.62 706.264 1189.79 706.401 1189.98 706.53C1192.4 708.26 1194.39 708.579 1197.27 708.973L1197.16 709.578L1190.67 710.198C1167.31 709.482 1143.98 707.839 1120.61 707.047Q1036.96 704.387 953.28 706.283Q898.926 707.946 844.655 711.399C826.639 712.535 807.1 715.615 789.138 715.05C782.762 713.958 775.381 716.807 769.935 712.367Z"/>
		<path fill="#FBF9FC" transform="matrix(0.381054 0 0 0.382127 -213.824 -99.2982)" d="M586.061 587.396C606.602 585.963 627.41 581.757 647.856 579.048Q705.019 571.649 762.38 565.981Q807.66 562.091 853.042 559.661Q898.424 557.231 943.86 556.263Q989.297 555.296 1034.74 555.791Q1080.19 556.286 1125.59 558.243C1126.5 559.899 1126.55 560.124 1126.43 562.01C1106.64 562.049 1086.84 560.826 1067.06 560.341Q1028.02 559.595 988.976 559.878Q914.511 560.229 840.186 564.796Q765.861 569.362 691.913 578.131C660.023 581.904 627.46 585.255 595.883 591.098C616.337 613.637 636.692 636.386 657.684 658.422Q629.383 695.999 599.862 732.625C606.329 731.893 612.812 731.016 619.317 730.715C623.561 731.785 627.662 729.151 631.044 732.791C617.2 735.696 602.912 737.315 588.912 739.387C609.354 712.436 630.484 685.871 651.556 659.409C630.71 634.774 607.835 611.25 586.061 587.396Z"/>
		<path fill="#76A945" transform="matrix(0.381054 0 0 0.382127 -213.824 -99.2982)" d="M738.042 349.704Q741.46 349.734 744.864 350.042C805.651 355.441 875.772 371.823 916.602 420.795C945.806 455.821 952.848 498.602 948.746 542.906C938.573 543.613 928.498 543.919 918.304 544.002L904.528 543.944C885.775 544.788 866.323 547.332 847.615 547.066C833.315 548.977 818.411 549.419 803.987 550.176C798.007 544.957 791.921 539.769 786.442 534.02C738.599 483.814 736.435 414.777 738.042 349.704Z"/>
		<path fill="#FBF9FC" transform="matrix(0.381054 0 0 0.382127 -213.824 -99.2982)" d="M830.643 469.048C834.58 469.038 837.589 470.947 841.365 471.695L826.236 472.742L824.51 470.731C826.424 469.648 828.506 469.425 830.643 469.048Z"/>
		<path fill="#F7F9CF" transform="matrix(0.381054 0 0 0.382127 -213.824 -99.2982)" d="M826.236 472.742C808.728 471.636 798.729 469.073 782.62 462.667L783.288 463.932L783.939 462.252C798.228 468.142 815.038 469.233 830.327 468.392L830.643 469.048C828.506 469.425 826.424 469.648 824.51 470.731L826.236 472.742Z"/>
		<path fill="#FBF9FC" transform="matrix(0.381054 0 0 0.382127 -213.824 -99.2982)" d="M790.347 406.46C787.779 403.13 770.847 384.305 770.691 381.965C778.804 387.944 785.888 396.557 792.945 403.778C794.604 396.612 794.978 388.996 796.753 382.036L797.693 382.537C798.477 387.71 797.467 392.872 796.875 398.024C796.188 403.998 795.855 405.829 799.643 410.6C797.422 411.286 797.326 411.337 796.015 413.254C791.494 408.52 775.223 409.981 766.989 406.998C774.832 407.202 782.519 406.967 790.347 406.46Z"/>
		<path fill="#FBF9FC" transform="matrix(0.381054 0 0 0.382127 -213.824 -99.2982)" d="M819.18 432.874C820.835 426.671 823.05 420.048 823.68 413.654C824.306 407.289 823.275 399.593 824.869 393.507C828.951 407.378 825.76 423.116 823.15 436.922L844.639 462.491C852.172 442.332 856.891 420.7 853.354 399.077C861.575 419.288 855.338 447.092 848.81 466.892Q860.798 481.265 872.501 495.871C882.417 472.492 889.065 442.724 883.169 417.349L883.435 416.825C891.792 445.799 887.15 472.593 877.922 500.725C886.615 511.965 895.845 523.126 905.971 533.11C911.026 515.826 914.849 500.107 914.986 481.948C915.043 474.444 911.18 451.737 912.462 447.185C923.488 473.914 919.018 509.882 911.636 536.934L918.304 544.002L904.528 543.944C903.254 542.561 901.851 540.982 899.954 540.512C892.71 538.716 869.473 541.107 859.929 540.64C856.343 539.519 851.517 539.376 847.728 538.691C834.907 536.374 823.277 533.546 811.687 527.46C840.62 535.944 865.623 537.05 895.476 534.222L870.681 505.428C859.454 505.822 848.033 506.517 836.83 505.528C825.955 504.568 794.915 498.596 788.077 490.419C793.837 489.746 804.602 497.093 810.903 498.464C829.522 502.514 847.728 502.504 866.522 499.872C862.367 494.717 846.831 472.504 841.365 471.695C837.589 470.947 834.58 469.038 830.643 469.048L830.327 468.392C833.335 468.254 836.306 468.338 839.108 467.125C834.458 457.82 823.856 447.904 816.843 439.951C800.297 441.075 784.515 440.822 769.269 433.747C784.527 436.809 798.606 437.709 814.091 435.982Q804.911 424.731 796.015 413.254C797.326 411.337 797.422 411.286 799.643 410.6Q809.333 421.806 819.18 432.874Z"/>
		<path fill="#1B4F40" transform="matrix(0.381054 0 0 0.382127 -213.824 -99.2982)" d="M595.883 591.098C627.46 585.255 660.023 581.904 691.913 578.131Q765.861 569.363 840.186 564.796Q914.511 560.229 988.976 559.878Q1028.02 559.595 1067.06 560.341C1086.84 560.826 1106.64 562.049 1126.43 562.01C1135.18 562.597 1143.89 563.219 1152.67 563.161C1164.81 564.454 1177.55 565.226 1189.76 565.171C1207.25 567.141 1231.35 569.477 1248.65 568.996L1251.46 569.187C1272.3 571.71 1293.39 573.128 1314.31 574.998C1325.85 576.03 1338.19 578.134 1349.71 578.022C1360.87 579.51 1373.64 582.168 1384.8 581.952C1398.43 583.792 1412.29 584.704 1425.86 586.824L1432.66 587.775C1438.76 588.563 1445.26 588.985 1451.26 590.326C1450.14 594.634 1405.49 643.947 1400.17 648.155C1397.91 652.327 1393.8 656.627 1389.65 658.945C1395.82 664.227 1442 723.134 1444.82 730.515L1444.68 731.847C1440.5 730.527 1435.11 730.64 1430.72 730.237C1426.25 729.367 1421.94 729.034 1417.41 728.839C1411.83 726.069 1385.95 724.168 1378.61 723.997C1375.91 721.859 1349.65 720.163 1344.92 720.027C1340.01 717.17 1326.5 717.564 1320.52 717.195C1306.09 713.841 1280.68 712.259 1265.73 712.028C1259.86 709.602 1249.36 710.173 1242.82 710.063C1232.18 706.892 1201.92 706.552 1189.44 706.132C1144.31 701.073 1091.69 701.1 1046.18 701.004Q977.02 700.402 907.916 703.244Q838.812 706.087 769.935 712.367C749.281 714.256 628.107 726.025 619.317 730.715C612.812 731.016 606.329 731.893 599.862 732.625Q629.383 695.999 657.684 658.422C636.692 636.386 616.337 613.637 595.883 591.098Z"/>
		<path fill="#FBF9FC" transform="matrix(0.381054 0 0 0.382127 -213.824 -99.2982)" d="M1303.29 606.497C1312.32 605.517 1341.12 607.982 1349.45 611.474C1349.83 612.22 1350.13 612.765 1350.24 613.609C1350.59 616.356 1350.55 619.462 1348.92 621.648C1344.31 623.299 1337.13 621.301 1332.15 620.857C1332.83 621.991 1333.39 623.211 1333.61 624.526C1334.77 631.235 1334.38 659.501 1331.15 664.506C1334.02 669.453 1333.06 676.375 1331.79 681.693C1327.4 680.62 1322.38 680.381 1317.88 679.76C1318.23 679.203 1318.54 678.635 1318.79 678.023C1320.73 673.311 1321.2 624.249 1319 619.273C1314.73 618.571 1309.87 619.104 1305.91 617.19C1303.58 614.288 1303.82 610.105 1303.29 606.497Z"/>
		<path fill="#FBF9FC" transform="matrix(0.381054 0 0 0.382127 -213.824 -99.2982)" d="M845.609 597.02L857.937 596.729C850.513 612.082 839.632 630.652 837.432 647.665C836.415 655.524 837.065 664.046 837.179 671.977L824.69 672.931C825.078 659.087 826.856 646.727 819.491 634.364C813.145 622.893 807.311 611.088 801.298 599.435L814.844 598.416C820.423 609.235 825.523 620.325 830.696 631.342C836.221 620.278 840.714 608.396 845.609 597.02Z"/>
		<path fill="#FBF9FC" transform="matrix(0.381054 0 0 0.382127 -213.824 -99.2982)" d="M883.145 593.074C888.612 592.68 895.769 592.976 900.542 596.05C902.977 597.617 903.366 599.117 904.075 601.793C903.623 605.415 900.166 607.638 897.56 609.877C895.306 607.711 892.472 604.896 889.304 604.277C885.798 603.592 883.348 604.967 880.642 606.926C872.688 622.772 904.14 626.79 907.476 643.724C908.601 649.437 906.368 656.245 903.029 660.871C898.464 667.198 891.803 668.845 884.551 670.118C874.861 668.682 869.676 666.536 863.682 658.628L873.073 650.986C874.79 652.929 877.009 655.499 879.268 656.765C881.713 658.135 885.512 658.569 888.19 657.571C891.464 656.35 893.792 653.193 895.055 650.085C895.901 638.165 873.172 631.877 867.818 621.118Q867.62 620.725 867.442 620.323Q867.265 619.921 867.108 619.51Q866.952 619.1 866.816 618.682Q866.681 618.263 866.567 617.839Q866.454 617.414 866.362 616.984Q866.27 616.554 866.201 616.12Q866.131 615.686 866.084 615.249Q866.037 614.812 866.013 614.373Q865.988 613.934 865.986 613.495Q865.984 613.055 866.005 612.616Q866.025 612.177 866.068 611.74Q866.111 611.302 866.177 610.867Q866.243 610.433 866.33 610.002Q866.418 609.571 866.528 609.146Q866.638 608.72 866.769 608.3Q866.901 607.881 867.054 607.469C869.756 600.029 876.342 596.19 883.145 593.074Z"/>
		<path fill="#FBF9FC" transform="matrix(0.381054 0 0 0.382127 -213.824 -99.2982)" d="M1051.13 591.499C1059.06 591.401 1081.05 589.485 1087.19 592.692C1088.42 593.338 1090.69 595.508 1090.89 596.969C1091.26 599.784 1091.14 600.242 1089.46 602.353C1081.44 604.703 1070.61 603.253 1062.26 603.143C1062.6 603.634 1062.91 604.128 1063.14 604.685C1065.17 609.626 1064.39 618.12 1062.42 622.961C1068.25 623.056 1074.26 622.312 1080.05 622.849C1083.4 623.159 1085.04 624.428 1087.11 626.924C1087.74 629.846 1087.62 631.249 1086.72 634.1C1080.61 637.211 1072.04 633.162 1065.67 635.211C1064.25 635.671 1063.1 641.503 1062.21 643.338C1063.96 646.052 1063.34 651.736 1064.95 653.354C1068.43 656.853 1079.66 653.619 1084.45 653.702C1087.16 653.749 1088.25 654.596 1090.06 656.455C1091.02 659.363 1090.54 661.644 1090.04 664.586C1084.34 667.806 1057.56 665.899 1049.39 665.811C1049.47 665.654 1049.54 665.495 1049.63 665.338C1053.26 658.368 1051.19 603.592 1051.13 591.499Z"/>
		<path fill="#FBF9FC" transform="matrix(0.381054 0 0 0.382127 -213.824 -99.2982)" d="M1186.32 596.492C1191.61 595.311 1221.92 596.047 1225.41 598.296C1226.63 599.08 1227.06 600.501 1227.32 601.895C1227.75 604.127 1227.15 606.902 1225.8 608.69C1217.49 610.215 1207.46 608.492 1199.01 608.023C1199.56 608.811 1199.95 609.586 1200.23 610.513C1201.71 615.501 1201.21 623.277 1198.87 627.908C1206.82 627.897 1214.79 628.703 1222.72 629.308C1223.13 630.012 1223.31 630.413 1223.48 631.199C1224.18 634.308 1224.11 638.514 1222.44 641.272C1216.5 640.434 1208.23 638.178 1202.49 640.342C1199.62 641.427 1199.36 643.809 1198.18 646.474C1198.63 647.285 1198.99 648.159 1199.29 649.032C1200.49 652.48 1200.04 655.588 1198.44 658.81C1207.17 658.823 1215.95 659.741 1224.65 660.402C1224.89 660.81 1225.22 661.319 1225.39 661.78C1226.37 664.404 1226.55 668.841 1225.47 671.41C1214.9 673.146 1195.56 670.059 1184.19 669.346C1184.61 668.673 1184.98 667.986 1185.27 667.249C1187.27 662.272 1188.48 601.261 1186.32 596.492Z"/>
		<path fill="#FBF9FC" transform="matrix(0.381054 0 0 0.382127 -213.824 -99.2982)" d="M774.33 600.454C778.477 603.434 803.157 664.011 807.062 673.925L794.161 674.778C791.963 671.15 790.335 667.098 788.568 663.244C784.313 663.771 779.956 663.907 775.677 664.198C771.071 664.705 766.382 664.855 761.755 665.151L756.473 677.841C752.935 678.102 748.509 678.673 745.329 676.861C747.727 667.289 752.242 657.855 755.814 648.656L774.33 600.454Z"/>
		<path fill="#1B4F40" transform="matrix(0.381054 0 0 0.382127 -213.824 -99.2982)" d="M774.641 629.826C777.313 633.325 779.291 639.638 781.061 643.763C782.347 646.76 783.58 650.325 782.374 653.395L778.25 653.918C775.175 654.165 770.856 655.033 768.186 653.305C765.791 647.692 772.527 635.653 774.641 629.826Z"/>
		<path fill="#FBF9FC" transform="matrix(0.381054 0 0 0.382127 -213.824 -99.2982)" d="M1007.98 591.106C1013.44 590.749 1018.58 590.733 1023.88 592.41C1027.77 593.641 1031.87 596.059 1033.85 599.73C1033.72 600.615 1033.58 601.167 1033.07 601.921C1025.42 613.163 1020.76 600.667 1007.31 603.315C1002.56 604.25 998.959 607.117 996.404 611.154Q995.978 611.825 995.586 612.517Q995.195 613.208 994.838 613.919Q994.482 614.629 994.161 615.357Q993.841 616.084 993.557 616.827Q993.274 617.569 993.028 618.325Q992.782 619.081 992.574 619.848Q992.367 620.615 992.198 621.392Q992.029 622.169 991.899 622.953Q991.769 623.737 991.679 624.527Q991.589 625.316 991.538 626.11Q991.487 626.903 991.477 627.698Q991.466 628.492 991.495 629.287Q991.525 630.081 991.594 630.873Q991.663 631.665 991.771 632.452Q991.88 633.24 992.028 634.021Q992.176 634.801 992.363 635.574C993.906 642.039 997.121 648.383 1002.99 651.881C1007.79 654.743 1013.57 655.288 1018.94 653.906C1022.5 652.99 1025.06 651.61 1026.95 648.348C1025.3 643.985 1020.14 646.354 1016.8 643.017C1016.16 641.785 1015.64 640.596 1015.72 639.186C1015.89 636.305 1015.96 634.957 1018.06 633.03L1036.36 633.046C1036.45 633.186 1036.55 633.323 1036.64 633.468C1039.74 638.557 1038.48 652.914 1037.11 658.714C1035.57 661.408 1030.72 663.34 1027.93 664.155C1017.46 667.224 1006.62 667.366 996.875 661.926C988.204 657.083 981.887 648.491 979.397 638.924C976.744 628.724 978.119 617.192 983.494 608.08C989.129 598.528 997.556 593.852 1007.98 591.106Z"/>
		<path fill="#FBF9FC" transform="matrix(0.381054 0 0 0.382127 -213.824 -99.2982)" d="M943.964 591.486C948.984 596.995 970.009 653.061 975.25 665.663L960.919 665.924L957.065 656.072L943.751 656.466L929.208 656.817L924.674 667.806L911.555 667.788Q928.097 629.78 943.964 591.486Z"/>
		<path fill="#1B4F40" transform="matrix(0.381054 0 0 0.382127 -213.824 -99.2982)" d="M942.227 622.612C945.041 624.855 948.372 633.401 949.708 636.916C950.74 639.631 951.632 643.001 950.45 645.659L946.25 646L933.094 645.969L942.227 622.612Z"/>
		<path fill="#FBF9FC" transform="matrix(0.381054 0 0 0.382127 -213.824 -99.2982)" d="M719.713 606.437C722.082 606.064 724.727 606.158 727.114 606.305C732.895 606.662 739.44 609.702 743.169 614.191C746.892 618.672 747.935 624.509 747.28 630.184Q747.216 630.751 747.13 631.315Q747.044 631.88 746.937 632.44Q746.83 633.001 746.701 633.557Q746.572 634.113 746.422 634.663Q746.273 635.214 746.102 635.758Q745.931 636.303 745.739 636.841Q745.548 637.378 745.336 637.908Q745.124 638.438 744.892 638.959Q744.66 639.481 744.408 639.993Q744.156 640.505 743.885 641.007Q743.614 641.509 743.324 642.001Q743.033 642.492 742.725 642.972Q742.416 643.452 742.089 643.92Q741.762 644.387 741.417 644.842Q741.073 645.297 740.711 645.738Q740.349 646.18 739.971 646.607Q739.592 647.034 739.198 647.447Q738.803 647.859 738.393 648.256Q737.984 648.653 737.559 649.034Q737.134 649.415 736.695 649.78Q736.256 650.145 735.803 650.492Q735.35 650.839 734.885 651.169Q734.419 651.499 733.941 651.811Q733.463 652.123 732.974 652.416Q732.484 652.71 731.984 652.984Q731.483 653.258 730.973 653.513Q730.462 653.769 729.942 654.004Q729.422 654.239 728.894 654.455Q728.365 654.67 727.829 654.865Q727.292 655.06 726.749 655.234Q726.206 655.408 725.656 655.561Q725.106 655.715 724.551 655.847C721.255 656.652 716.993 656.193 714.402 658.277L714.2 662.75L714.111 680.84L702.256 682.127L702.167 607.765C707.997 607.201 713.871 606.872 719.713 606.437Z"/>
		<path fill="#1B4F40" transform="matrix(0.381054 0 0 0.382127 -213.824 -99.2982)" d="M714.664 617.967C718.785 617.608 723.347 616.963 727.224 618.768C729.993 620.057 732.469 622.436 733.392 625.402C735.106 630.911 732.687 637.081 730.084 641.877C729.937 641.961 729.793 642.049 729.644 642.129C729.396 642.261 729.142 642.381 728.893 642.511C724.408 644.847 719.657 645.441 714.729 646.262L714.664 617.967Z"/>
		<path fill="#FBF9FC" transform="matrix(0.381054 0 0 0.382127 -213.824 -99.2982)" d="M1240.08 598.486C1241.76 598.294 1242.41 598.351 1243.95 599.058C1249.45 605.189 1278.07 641.091 1278.03 646.853C1278.69 645.724 1279.29 644.554 1279.66 643.294C1281.64 636.402 1283.11 610.29 1279.79 604.022L1292.63 605.095C1293.26 606.327 1293.75 607.627 1293.96 609.001C1295.12 616.625 1294.06 674.177 1291.1 677.985L1290.47 678.728C1285.92 678.507 1259.16 636.626 1250.19 631.286C1250.26 631.434 1250.34 631.578 1250.41 631.728C1250.53 631.978 1250.62 632.234 1250.73 632.485C1250.82 632.688 1250.92 632.884 1251.01 633.088C1253.42 638.857 1252.2 667.415 1249.57 673.569C1245.65 672.932 1241.39 672.951 1237.42 672.674C1240.71 665.535 1239.86 611.056 1240.08 598.486Z"/>
		<path fill="#FBF9FC" transform="matrix(0.381054 0 0 0.382127 -213.824 -99.2982)" d="M1106.59 588.479L1109.24 589.512C1114.12 595.638 1136.21 623.92 1136.66 629.745C1136.81 629.659 1136.96 629.577 1137.1 629.487C1142.68 625.932 1166.87 595.29 1168.22 589.034C1169.14 590.509 1170.05 592.082 1170.53 593.768C1172.24 599.882 1170.55 663.409 1168.01 668.374L1155.04 667.89C1155.28 667.328 1155.49 666.812 1155.65 666.223C1156.94 661.505 1157.22 656.872 1154.85 652.468C1155.31 651.77 1155.74 651.043 1156.05 650.263C1158.46 644.131 1158.08 629.281 1155.36 623.428C1155.33 624.086 1155.25 624.719 1155.09 625.361C1153.94 630.084 1140.13 646.124 1135.99 648.573C1135.95 648.268 1135.9 647.735 1135.8 647.414C1134.08 642.14 1121.14 625.68 1116.35 622.933C1116.85 623.777 1117.32 624.609 1117.61 625.549C1119.46 631.557 1119.08 661.533 1116.5 666.926L1103.33 666.218C1110.18 654.153 1101.31 603.249 1106.59 588.479Z"/>
	</g>
</svg>
